Motion_pu02
version=1
nRows=15
nColumns=43
inDegrees=yes
endheader
time	pelvis_tilt	pelvis_list	pelvis_rotation	pelvis_tx	pelvis_ty	pelvis_tz	hip_flexion_r	hip_adduction_r	hip_rotation_r	knee_angle_r	ankle_angle_r	subtalar_angle_r	mtp_angle_r	hip_flexion_l	hip_adduction_l	hip_rotation_l	knee_angle_l	ankle_angle_l	subtalar_angle_l	mtp_angle_l	lumbar_extension	lumbar_bending	lumbar_rotation	neck_flexion	neck_lateral_bending	neck_rotation	arm_flex_r	arm_add_r	arm_rot_r	elbow_flex_r	pro_sup_r	wrist_flex_r	wrist_dev_r	hand_finger_flex_r	arm_flex_l	arm_add_l	arm_rot_l	elbow_flex_l	pro_sup_l	wrist_flex_l	wrist_dev_l	hand_finger_flex_l
      1.65500000	      1.57423101	     -8.90267004	    -91.61141400	      0.01013604	      1.17455026	      1.23101553	     18.12400519	     -9.16472427	    -10.62251430	    -24.79686561	    -14.59117382	     -4.39030940	    -17.19054842	     10.21535233	     -1.60278138	    -10.84689131	    -20.18796727	      2.19855117	      3.31990676	    -15.97327992	     24.15470635	     -2.75554107	     -0.66148768	    -24.02631382	      1.06111521	      5.67553356	   -125.75815629	   -132.74738734	   -186.83083316	    116.95874816	    129.91354007	      8.76264166	      0.11125828	     70.43300184	     61.91230356	    -45.77891676	     -1.23703519	    122.20676381	    140.73866129	      1.86008991	     13.70756406	     90.00021046
      1.65750000	      1.55992764	     -8.92230092	    -91.60534171	      0.01012099	      1.17226450	      1.23238988	     18.12134468	     -9.15710488	    -10.62027697	    -24.80506789	    -14.53775432	     -4.41926738	    -17.16935353	     10.23287550	     -1.63291438	    -10.84868078	    -20.30268295	      2.25454055	      3.32084984	    -15.95815907	     24.19267706	     -2.76434909	     -0.69860049	    -24.19490791	      1.04783781	      5.71800210	   -125.02283594	   -132.70634368	   -186.38606574	    116.53046267	    129.80357134	      8.84303678	      0.14844249	     70.42411404	     62.73740825	    -45.79724849	     -0.72779586	    121.76852659	    140.65607452	      2.03146444	     13.76605912	     90.00021046
      1.66000000	      1.55003488	     -8.93542872	    -91.60906970	      0.01004877	      1.16999930	      1.23378038	     18.12230979	     -9.14658189	    -10.61774525	    -24.81100957	    -14.47321913	     -4.45502266	    -17.14723753	     10.24829717	     -1.66186200	    -10.85444500	    -20.41551452	      2.32682808	      3.31651655	    -15.94276718	     24.23306956	     -2.78253084	     -0.73542105	    -24.37159326	      1.03286047	      5.76609119	   -124.30904271	   -132.68753053	   -185.94492275	    116.12006376	    129.69236358	      8.93058333	      0.18176013	     70.41738991	     63.56685515	    -45.81820425	     -0.25874067	    121.36034271	    140.57244725	      2.18920912	     13.82112813	     90.00021046
      1.66250000	      1.54389353	     -8.94882113	    -91.60256943	      0.00993313	      1.16768072	      1.23513591	     18.13281308	     -9.13582886	    -10.60631660	    -24.84321580	    -14.37496577	     -4.50718335	    -17.11551966	     10.27490681	     -1.69938449	    -10.86822684	    -20.54838232	      2.44792382	      3.30512504	    -15.92095289	     24.26931039	     -2.80301839	     -0.78236356	    -24.58154884	      1.01060234	      5.83560879	   -123.53347891	   -132.67506458	   -185.46969002	    115.65870360	    129.53196969	      9.04008083	      0.22652844	     70.41405112	     64.38317622	    -45.92201527	      0.31673685	    120.88864353	    140.45258192	      2.39720302	     13.89884360	     90.00021046
      1.66500000	      1.53932509	     -8.94548066	    -91.60847303	      0.00989957	      1.16535141	      1.23652468	     18.13385262	     -9.13298877	    -10.58913970	    -24.86893203	    -14.27699950	     -4.55687435	    -17.08291324	     10.29691597	     -1.73361744	    -10.89105399	    -20.67789968	      2.56510726	      3.29414948	    -15.90109520	     24.31942938	     -2.82061248	     -0.83752839	    -24.75990066	      0.99265970	      5.90508010	   -122.77824958	   -132.66377932	   -184.97352734	    115.22285570	    129.37866922	      9.14881980	      0.26581119	     70.41130385	     65.18683660	    -45.98365745	      0.82299464	    120.45354687	    140.32711797	      2.59064159	     13.98051133	     90.00021046
      1.66750000	      1.53198334	     -8.94614316	    -91.60230737	      0.00979038	      1.16308609	      1.23794080	     18.16637898	     -9.11648623	    -10.57005336	    -24.89071938	    -14.16253959	     -4.60514891	    -17.04455492	     10.32839453	     -1.76040260	    -10.92576546	    -20.79569341	      2.70499375	      3.27856314	    -15.87975559	     24.35846991	     -2.82575573	     -0.89492403	    -24.94775784	      0.96005430	      5.98085358	   -122.00255311	   -132.67349926	   -184.51530702	    114.78916641	    129.20641872	      9.25332893	      0.31102531	     70.41037815	     65.99938159	    -46.09787171	      1.28803354	    120.06304426	    140.17562918	      2.79312753	     14.07781123	     90.00021046
      1.67000000	      1.52795697	     -8.90327921	    -91.62280234	      0.00952679	      1.16071963	      1.23934506	     18.25325022	     -9.08707537	    -10.51675351	    -24.99956402	    -13.87897323	     -4.68587545	    -16.94343042	     10.40059555	     -1.80638762	    -10.98146973	    -20.95345116	      3.07025391	      3.25437266	    -15.83015760	     24.43912693	     -2.83860540	     -1.05016781	    -25.21050311	      0.82296973	      6.16358321	   -121.18518632	   -132.86584260	   -183.97683676	    114.29602700	    128.74369487	      9.39258824	      0.42934058	     70.42896776	     66.80469678	    -46.43565544	      1.72929634	    119.79685829	    139.74592313	      3.22256628	     14.38055627	     90.00021046
      1.67250000	      1.51467972	     -8.89837472	    -91.60943250	      0.00969943	      1.15844876	      1.24076770	     18.23867273	     -9.09251394	    -10.50326866	    -24.97703390	    -13.84567702	     -4.68067127	    -16.91351273	     10.42812503	     -1.83469178	    -11.02006656	    -21.05577368	      3.08945946	      3.25959119	    -15.82808244	     24.47206375	     -2.80877819	     -1.07252599	    -25.27111952	      0.81729640	      6.20275561	   -120.36303384	   -132.74987864	   -183.42900425	    113.88080036	    128.67874980	      9.44747590	      0.46137566	     70.42082779	     67.48567936	    -46.40257301	      2.07775140	    119.35507862	    139.60583917	      3.38370507	     14.49066971	     90.00021046
      1.67500000	      1.49527012	     -8.89349362	    -91.60384891	      0.00968834	      1.15620096	      1.24222987	     18.24212725	     -9.06945637	    -10.48951499	    -24.99067300	    -13.78872341	     -4.67982216	    -16.88648757	     10.42893642	     -1.86381950	    -11.08259042	    -21.15875386	      3.16185265	      3.22760665	    -15.82273102	     24.50971005	     -2.79708678	     -1.14890466	    -25.40549744	      0.77035420	      6.23187518	   -119.59981056	   -132.74092603	   -182.93167233	    113.48753111	    128.61307030	      9.49983734	      0.48399175	     70.41410531	     68.27266782	    -46.48834123	      2.50718637	    118.98576538	    139.47409586	      3.52723673	     14.56053100	     90.00021046
      1.67750000	      1.48210600	     -8.88462708	    -91.60827501	      0.00957733	      1.15389297	      1.24367269	     18.25758983	     -9.05271189	    -10.46620806	    -25.04132632	    -13.66627259	     -4.68524363	    -16.84621011	     10.45410442	     -1.92137860	    -11.15573541	    -21.28602878	      3.31983263	      3.16544056	    -15.81273849	     24.53587506	     -2.78767223	     -1.23579554	    -25.57282304	      0.67970396	      6.27806553	   -118.77798313	   -132.78620479	   -182.39450520	    113.02968243	    128.49034502	      9.55399251	      0.51463393	     70.41225253	     69.08243394	    -46.69515906	      3.03277359	    118.57369468	    139.26858444	      3.72669438	     14.66537006	     90.00021046
      1.68000000	      1.46611915	     -8.87077483	    -91.60294002	      0.00957309	      1.15163496	      1.24510162	     18.27299965	     -9.02772889	    -10.43640001	    -25.08784604	    -13.53885454	     -4.68347642	    -16.80763627	     10.47507620	     -1.94787834	    -11.21889515	    -21.41511183	      3.47196302	      3.10714632	    -15.80726931	     24.57094539	     -2.77382974	     -1.32259494	    -25.70819546	      0.59223338	      6.32655769	   -117.98290442	   -132.80946937	   -181.87276399	    112.60295678	    128.36538817	      9.59642590	      0.53836238	     70.41276195	     69.85333221	    -46.84383758	      3.48006287	    118.19519660	    139.04846719	      3.91309331	     14.77807367	     90.00021046
      1.68250000	      1.45697298	     -8.75743594	    -91.63390244	      0.00970011	      1.14911542	      1.24647587	     18.44735090	     -9.02529988	    -10.34220068	    -25.25352563	    -12.93727494	     -4.53817455	    -16.57468091	     10.63636400	     -1.96193107	    -11.21918024	    -21.67352218	      4.08327233	      3.03579178	    -15.84810185	     24.69826572	     -2.66069326	     -1.66597499	    -25.79406916	      0.15717732	      6.68940074	   -116.76934034	   -133.21575876	   -180.83429140	    111.89675693	    127.46599067	      9.42750508	      0.73665893	     70.53342871	     70.32340085	    -47.40010145	      3.41342734	    118.09707706	    137.49370897	      4.78896723	     15.81252985	     90.00021046
      1.68500000	      1.41175453	     -8.78147210	    -91.60237883	      0.00974375	      1.14698587	      1.24796501	     18.39608395	     -8.99658008	    -10.36300467	    -25.26867981	    -13.04724049	     -4.48870118	    -16.57224410	     10.59562041	     -2.02712816	    -11.26522518	    -21.74167266	      3.98213384	      3.02111900	    -15.87333011	     24.69009599	     -2.63575949	     -1.75405822	    -25.93071401	      0.10572750	      6.67860292	   -116.03741053	   -133.17500280	   -180.37537310	    111.51356525	    127.55622298	      9.42589358	      0.75281499	     70.53643406	     71.10139159	    -47.48448982	      3.90446968	    117.70803755	    137.44386522	      4.85135456	     15.84030344	     90.00021046
      1.68750000	      1.39519677	     -8.79394608	    -91.59628405	      0.00967174	      1.14481104	      1.24939635	     18.36440742	     -8.97518972	    -10.36530125	    -25.28558539	    -13.03670601	     -4.48312578	    -16.55329918	     10.57696187	     -2.06967989	    -11.30249973	    -21.85792005	      4.02051477	      2.96475554	    -15.88726025	     24.68754855	     -2.63457044	     -1.83259399	    -26.07380257	      0.01994355	      6.69347629	   -115.32029937	   -133.22644552	   -179.95370320	    111.12479926	    127.57609415	      9.42982345	      0.76210503	     70.54977392	     71.92220297	    -47.64249054	      4.44099401	    117.31655376	    137.33299644	      4.94086795	     15.88537591	     90.00021046
      1.69000000	      1.38691223	     -8.79741692	    -91.58304382	      0.00964140	      1.14261916	      1.25082898	     18.35203286	     -8.96995148	    -10.34200060	    -25.31874865	    -12.97563545	     -4.49504548	    -16.52955580	     10.57181714	     -2.09947530	    -11.32240872	    -21.98966324	      4.09669926	      2.91194627	    -15.89645486	     24.69190763	     -2.64308867	     -1.90541480	    -26.19595482	     -0.04156829	      6.72559604	   -114.59832221	   -133.24898944	   -179.52723674	    110.73148157	    127.55589059	      9.44882082	      0.76088438	     70.56430290	     72.73635856	    -47.73959112	      4.94089278	    116.91696917	    137.19661797	      5.03500236	     15.93642621	     90.00021046
